<svg width="92" height="69" viewBox="0 0 92 69" fill="none" xmlns="http://www.w3.org/2000/svg">
<path d="M27.1891 39.2765V28.1123L18.1945 33.0614C15.9314 34.2987 13.0918 33.4067 11.9675 31.0904L7.31162 21.5376C6.25937 19.3796 7.0954 16.7755 9.19991 15.6246L28.9477 4.86328C28.9477 4.86328 36.6305 5.03592 36.6305 5.15102C36.6305 10.9921 40.5945 13.9989 45.4954 13.9989C50.3963 13.9989 54.0864 10.0713 54.3603 5.15102C54.3603 4.9496 63.2828 4.86328 63.2828 4.86328L82.4251 15.3081C84.8612 16.6317 85.8269 19.6385 84.6161 22.1274L80.5801 30.4286C79.2828 33.1046 75.9963 34.1404 73.3873 32.7161L65.0414 28.1267V39.2909" stroke="black" stroke-width="3" stroke-linecap="round" stroke-linejoin="round"/>
<path d="M65.1711 51.8074V63.9786H30.1729" stroke="black" stroke-width="3" stroke-linecap="round" stroke-linejoin="round"/>
<path d="M23.2972 41.6501C23.2972 41.6501 24.8684 50.3829 33.4738 52.6704C33.4738 52.6704 24.2918 54.8141 23.0089 63.2591C23.0089 63.2591 19.4197 53.5336 13.1206 52.6704C13.1206 52.6704 22.5909 49.0881 23.2972 41.6501Z" stroke="black" stroke-width="3" stroke-linecap="round" stroke-linejoin="round"/>
<path d="M11.6219 44.5132C12.609 44.5132 13.4092 43.7145 13.4092 42.7293C13.4092 41.744 12.609 40.9453 11.6219 40.9453C10.6347 40.9453 9.83447 41.744 9.83447 42.7293C9.83447 43.7145 10.6347 44.5132 11.6219 44.5132Z" fill="black"/>
<path d="M10.6414 65.0001C11.6285 65.0001 12.4288 64.2013 12.4288 63.2161C12.4288 62.2308 11.6285 61.4321 10.6414 61.4321C9.65424 61.4321 8.854 62.2308 8.854 63.2161C8.854 64.2013 9.65424 65.0001 10.6414 65.0001Z" fill="black"/>
<path d="M65.1565 46.7864C66.1437 46.7864 66.9439 45.9877 66.9439 45.0025C66.9439 44.0172 66.1437 43.2185 65.1565 43.2185C64.1694 43.2185 63.3691 44.0172 63.3691 45.0025C63.3691 45.9877 64.1694 46.7864 65.1565 46.7864Z" fill="black"/>
</svg>
