<svg width="62" height="68" viewBox="0 0 62 68" fill="none" xmlns="http://www.w3.org/2000/svg">
<g clip-path="url(#clip0_60_591)">
<path d="M56.2763 0.771484H5.71123C2.99657 0.771484 0.795898 2.97653 0.795898 5.6966V62.3032C0.795898 65.0233 2.99657 67.2283 5.71123 67.2283H56.2763C58.991 67.2283 61.1916 65.0233 61.1916 62.3032V5.6966C61.1916 2.97653 58.991 0.771484 56.2763 0.771484Z" stroke="black" stroke-width="3" stroke-linecap="round" stroke-linejoin="round"/>
<path d="M0.77002 18.2217H61.23" stroke="black" stroke-width="3" stroke-linecap="round" stroke-linejoin="round"/>
<path d="M21.7017 6.14673H6.49365V12.0877H21.7017V6.14673Z" stroke="black" stroke-width="3" stroke-linecap="round" stroke-linejoin="round"/>
<path d="M50.283 11.9334C51.9203 11.9334 53.2476 10.6035 53.2476 8.96293C53.2476 7.32237 51.9203 5.99243 50.283 5.99243C48.6457 5.99243 47.3184 7.32237 47.3184 8.96293C47.3184 10.6035 48.6457 11.9334 50.283 11.9334Z" stroke="black" stroke-width="3" stroke-linecap="round" stroke-linejoin="round"/>
<path d="M36.1401 7.13696H42.6597" stroke="black" stroke-width="3" stroke-linecap="round" stroke-linejoin="round"/>
<path d="M36.1401 10.686H42.6597" stroke="black" stroke-width="3" stroke-linecap="round" stroke-linejoin="round"/>
<path d="M30.8141 62.0462C41.1411 62.0462 49.5129 53.6578 49.5129 43.3102C49.5129 32.9626 41.1411 24.5742 30.8141 24.5742C20.487 24.5742 12.1152 32.9626 12.1152 43.3102C12.1152 53.6578 20.487 62.0462 30.8141 62.0462Z" stroke="black" stroke-width="3" stroke-linecap="round" stroke-linejoin="round"/>
<path d="M43.9814 43.3101C43.9814 50.6013 38.0907 56.5037 30.8139 56.5037C25.8344 56.5037 21.5095 53.739 19.2635 49.6497C18.2368 47.7723 17.6465 45.6119 17.6465 43.3101C17.6465 36.0189 23.5372 30.1165 30.8139 30.1165C38.0907 30.1165 43.9814 36.0189 43.9814 43.3101Z" stroke="black" stroke-width="3" stroke-linecap="round" stroke-linejoin="round"/>
<path d="M18.3267 47.3479C18.3267 47.3479 20.8421 50.2669 23.8837 48.6724C25.7831 47.6822 29.4407 43.2458 34.1892 45.0975C38.9377 46.9492 43.9814 43.3101 43.9814 43.3101" stroke="black" stroke-width="3" stroke-linecap="round" stroke-linejoin="round"/>
<path d="M32.6489 34.553C35.5365 35.1574 37.9108 37.1634 39.0401 39.8253" stroke="black" stroke-width="3" stroke-linecap="round" stroke-linejoin="round"/>
</g>
<defs>
<clipPath id="clip0_60_591">
<rect width="62" height="68" fill="white"/>
</clipPath>
</defs>
</svg>
