<svg width="79" height="72" viewBox="0 0 79 72" fill="none" xmlns="http://www.w3.org/2000/svg">
<path d="M13.1753 54.2904H39.8253V37.1224C39.8253 33.6778 37.163 30.8833 33.8822 30.8833H19.0915C15.7838 30.8833 13.1081 33.7054 13.1484 37.1778C13.2022 44.0809 13.2829 54.1936 13.1887 54.2904H13.1753Z" stroke="black" stroke-width="3" stroke-linecap="round" stroke-linejoin="round"/>
<path d="M17.9619 46.8062H34.998C37.6468 46.8062 39.7982 49.0196 39.7982 51.7449V54.2627H13.1616V51.7449C13.1616 49.0196 15.313 46.8062 17.9619 46.8062Z" stroke="black" stroke-width="3" stroke-linecap="round" stroke-linejoin="round"/>
<path d="M13.0543 43.9565V41.2588C13.0543 39.1976 11.4273 37.5375 9.43729 37.5375C7.43384 37.5375 5.82031 39.2114 5.82031 41.2588V56.9051C5.82031 59.2707 7.68931 61.1936 9.98858 61.1936H42.8775C45.1768 61.1936 47.0458 59.2707 47.0458 56.9051V40.7331C47.0458 38.6857 45.4323 37.0256 43.4423 37.0256C41.4523 37.0256 39.8387 38.6857 39.8387 40.7331V43.9011" stroke="black" stroke-width="3" stroke-linecap="round" stroke-linejoin="round"/>
<path d="M17.7466 61.3595L13.0539 67.1698H9.28906V61.1382" stroke="black" stroke-width="3" stroke-linecap="round" stroke-linejoin="round"/>
<path d="M34.877 61.3595L39.5831 67.1698H43.3345V61.1382" stroke="black" stroke-width="3" stroke-linecap="round" stroke-linejoin="round"/>
<path d="M64.687 57.998L67.3224 64.6937H71.9479V58.6621" stroke="black" stroke-width="3" stroke-linecap="round" stroke-linejoin="round"/>
<path d="M34.4736 27.7293V5.83008H74.1932V57.8736H49.4659" stroke="black" stroke-width="3" stroke-linecap="round" stroke-linejoin="round"/>
<path d="M54.6157 6.1897V57.2925" stroke="black" stroke-width="3" stroke-linecap="round" stroke-linejoin="round"/>
<path d="M49.9233 18.0732V31.7412" stroke="black" stroke-width="3" stroke-linecap="round" stroke-linejoin="round"/>
<path d="M58.9722 18.0732V31.7412" stroke="black" stroke-width="3" stroke-linecap="round" stroke-linejoin="round"/>
<path d="M49.6943 43.2788H73.9644" stroke="black" stroke-width="3" stroke-linecap="round" stroke-linejoin="round"/>
</svg>
