<svg width="139" height="139" viewBox="0 0 139 139" fill="none" xmlns="http://www.w3.org/2000/svg">
<circle cx="69.5" cy="69.5" r="69.5" fill="#448572"/>
<path fill-rule="evenodd" clip-rule="evenodd" d="M69.9169 37.1667C75.877 37.1667 80.7086 41.9983 80.7086 47.9583C80.7086 53.7198 76.1938 58.4267 70.5091 58.734L69.9169 58.75C63.9569 58.75 59.1252 53.9185 59.1252 47.9583C59.1252 42.197 63.6401 37.4899 69.3248 37.1826L69.9169 37.1667ZM48.3335 92.6667H75.4752C74.3721 90.7607 73.6204 88.6719 73.256 86.5H54.5002V81.5667L54.5163 80.9681C54.8136 75.4232 59.2157 71.0833 64.521 71.0833H75.3127L75.8775 71.0998C76.4281 71.132 76.9673 71.2109 77.4917 71.3328C79.0507 69.5263 80.9432 68.0373 83.0657 66.947C80.7633 65.6526 78.1215 64.9167 75.3127 64.9167H64.521L63.8538 64.9306C55.2232 65.2905 48.3335 72.601 48.3335 81.5667V92.6667ZM65.2919 47.9583C65.2919 45.404 67.3626 43.3333 69.9169 43.3333C72.4712 43.3333 74.5419 45.404 74.5419 47.9583C74.5419 50.5126 72.4712 52.5833 69.9169 52.5833C67.3626 52.5833 65.2919 50.5126 65.2919 47.9583ZM82.4385 95.8891L91.5002 90.3542L100.562 95.8891L98.0982 85.5604L106.162 78.6527L95.578 77.8042L91.5002 68L87.4224 77.8042L76.8381 78.6527L84.9022 85.5604L82.4385 95.8891Z" fill="white"/>
</svg>
