<svg width="139" height="139" viewBox="0 0 139 139" fill="none" xmlns="http://www.w3.org/2000/svg">
<circle cx="69.5" cy="69.5" r="69.5" fill="#448572"/>
<path d="M66.6668 74.5L60.4168 80.75C59.7502 81.4167 58.9591 81.7367 58.0435 81.71C57.1279 81.6834 56.3357 81.3356 55.6668 80.6667C55.0557 80 54.7357 79.2223 54.7068 78.3334C54.6779 77.4445 54.9979 76.6667 55.6668 76L67.6668 64C68.0002 63.6667 68.3613 63.4312 68.7502 63.2934C69.1391 63.1556 69.5557 63.0856 70.0002 63.0834C70.4446 63.0812 70.8613 63.1512 71.2502 63.2934C71.6391 63.4356 72.0002 63.6712 72.3335 64L84.3335 76C85.0002 76.6667 85.3202 77.4445 85.2935 78.3334C85.2668 79.2223 84.9468 80 84.3335 80.6667C83.6668 81.3334 82.8757 81.6812 81.9602 81.71C81.0446 81.7389 80.2524 81.4189 79.5835 80.75L73.3335 74.5V98.3334C73.3335 99.2778 73.0135 100.07 72.3735 100.71C71.7335 101.35 70.9424 101.669 70.0002 101.667C69.0579 101.664 68.2668 101.344 67.6268 100.707C66.9868 100.069 66.6668 99.2778 66.6668 98.3334V74.5ZM43.3335 61.6667V55C43.3335 53.1667 43.9868 51.5978 45.2935 50.2934C46.6002 48.9889 48.1691 48.3356 50.0002 48.3334H90.0002C91.8335 48.3334 93.4035 48.9867 94.7102 50.2934C96.0168 51.6 96.6691 53.1689 96.6668 55V61.6667C96.6668 62.6112 96.3468 63.4034 95.7068 64.0434C95.0668 64.6834 94.2757 65.0023 93.3335 65C92.3913 64.9978 91.6002 64.6778 90.9602 64.04C90.3202 63.4023 90.0002 62.6112 90.0002 61.6667V55H50.0002V61.6667C50.0002 62.6112 49.6802 63.4034 49.0402 64.0434C48.4002 64.6834 47.6091 65.0023 46.6668 65C45.7246 64.9978 44.9335 64.6778 44.2935 64.04C43.6535 63.4023 43.3335 62.6112 43.3335 61.6667Z" fill="white"/>
</svg>
