<svg width="139" height="139" viewBox="0 0 139 139" fill="none" xmlns="http://www.w3.org/2000/svg">
<circle cx="69.5" cy="69.5" r="69.5" fill="#448572"/>
<path d="M44.1729 57.2485C43.1572 56.2329 42.3849 55.0798 41.856 53.7891C41.327 52.4984 41.0625 51.1442 41.0625 49.7266C41.0625 48.2243 41.3376 46.8384 41.8877 45.5688C42.4378 44.2993 43.189 43.1885 44.1411 42.2363C45.0933 41.2842 46.2253 40.5436 47.5371 40.0146C48.849 39.4857 50.2349 39.2106 51.6948 39.1895C53.0913 39.1895 54.4455 39.4328 55.7573 39.9194C57.0692 40.4061 58.2329 41.1572 59.2485 42.1729L70.4521 53.3765L67.564 56.2646L61.375 50.0757L52.0757 59.375L58.2646 65.564L55.3765 68.4521L44.1729 57.2485ZM51.7266 43.1885C50.8167 43.1885 49.9598 43.3472 49.1558 43.6646C48.3517 43.9819 47.6535 44.4474 47.061 45.061C46.4686 45.6746 46.0031 46.3623 45.6646 47.124C45.326 47.8857 45.1462 48.7533 45.125 49.7266C45.125 50.5306 45.2308 51.2288 45.4424 51.8213C45.654 52.4137 45.9608 52.9744 46.3628 53.5034C46.7648 54.0324 47.1986 54.5296 47.6641 54.9951C48.1296 55.4606 48.6374 55.9578 49.1875 56.4868L58.4868 47.1875C57.9367 46.6585 57.4395 46.1507 56.9951 45.6641C56.5508 45.1774 56.0641 44.7542 55.5352 44.3945C55.0062 44.0348 54.4561 43.7386 53.8848 43.5059C53.3135 43.2731 52.5941 43.1673 51.7266 43.1885ZM102 100L81.9097 94.9854L72.6104 85.686L75.4985 82.7979L82.3857 89.7168C82.7243 88.6165 83.1898 87.5798 83.7822 86.6064C84.3747 85.6331 85.0835 84.7339 85.9087 83.9087C86.7339 83.0835 87.6226 82.3853 88.5747 81.814C89.5269 81.2427 90.5742 80.7666 91.7168 80.3857L84.7979 73.4985L87.686 70.6104L96.9854 79.9097L102 100ZM96.4141 94.4141L93.8115 83.9722C92.8171 84.1838 91.8966 84.5223 91.0503 84.9878C90.2039 85.4533 89.4316 86.0352 88.7334 86.7334C88.0352 87.4316 87.4533 88.2039 86.9878 89.0503C86.5223 89.8966 86.1838 90.8171 85.9722 91.8115L96.4141 94.4141ZM91.8438 41.0938C92.9652 41.0938 94.0125 41.3053 94.9858 41.7285C95.9591 42.1517 96.8267 42.7336 97.5884 43.4741C98.3501 44.2147 98.932 45.0716 99.334 46.0449C99.736 47.0182 99.9476 48.0762 99.9688 49.2188C99.9688 50.2979 99.7677 51.3346 99.3657 52.3291C98.9637 53.3236 98.3713 54.2017 97.5884 54.9634L61.2163 91.3354C61.0259 92.5838 60.6344 93.7264 60.042 94.7632C59.4495 95.8 58.709 96.7204 57.8203 97.5244C56.9316 98.3284 55.9266 98.9315 54.8052 99.3335C53.6838 99.7355 52.4883 99.9577 51.2188 100H37V95.9375C37.2327 95.9375 37.4761 95.9058 37.73 95.8423C37.9839 95.7788 38.2166 95.6836 38.4282 95.5566C38.9572 95.2816 39.391 94.9325 39.7295 94.5093C40.068 94.0861 40.3325 93.6206 40.5229 93.1128C40.7134 92.605 40.8509 92.076 40.9355 91.5259C41.0202 90.9757 41.0625 90.415 41.0625 89.8438C41.0625 88.5954 41.2741 87.4105 41.6973 86.2891C42.1204 85.1676 42.734 84.152 43.5381 83.2422C44.3421 82.3324 45.252 81.5918 46.2676 81.0205C47.2832 80.4492 48.4364 80.0578 49.7271 79.8462L86.0991 43.4741C86.8608 42.7124 87.7389 42.1305 88.7334 41.7285C89.7279 41.3265 90.7646 41.1149 91.8438 41.0938ZM51.2188 95.9375C52.0651 95.9375 52.8586 95.7788 53.5991 95.4614C54.3397 95.144 54.985 94.7103 55.5352 94.1602C56.0853 93.61 56.519 92.9647 56.8364 92.2241C57.1538 91.4836 57.3125 90.6901 57.3125 89.8438C57.3125 88.9974 57.1538 88.2039 56.8364 87.4634C56.519 86.7228 56.0853 86.0775 55.5352 85.5273C54.985 84.9772 54.3397 84.5435 53.5991 84.2261C52.8586 83.9087 52.0651 83.75 51.2188 83.75C50.3724 83.75 49.5789 83.9087 48.8384 84.2261C48.0978 84.5435 47.4525 84.9772 46.9023 85.5273C46.3522 86.0775 45.9185 86.7228 45.6011 87.4634C45.2837 88.2039 45.125 88.9974 45.125 89.8438C45.125 92.0443 44.4479 94.0755 43.0938 95.9375H51.2188ZM67.6592 79.1479C66.9821 77.8149 66.1886 76.6935 65.2788 75.7837C64.369 74.8739 63.2476 74.0804 61.9146 73.4033L54.9004 80.4175C56.2122 80.9253 57.3654 81.6764 58.3599 82.6709C59.3543 83.6654 60.116 84.8291 60.645 86.1621L67.6592 79.1479ZM94.7002 52.0752C95.4831 51.2923 95.8745 50.3402 95.8745 49.2188C95.8745 48.6686 95.7687 48.1502 95.5571 47.6636C95.3455 47.1769 95.0599 46.7537 94.7002 46.394C94.3405 46.0343 93.9067 45.7381 93.3989 45.5054C92.8911 45.2726 92.3727 45.1668 91.8438 45.188C90.7223 45.188 89.7702 45.5794 88.9873 46.3623L64.8979 70.4199C66.1886 71.1816 67.2783 72.0068 68.167 72.8955C69.0557 73.7842 69.8809 74.8739 70.6426 76.1646L94.7002 52.0752Z" fill="white"/>
</svg>
