<svg width="74" height="62" viewBox="0 0 74 62" fill="none" xmlns="http://www.w3.org/2000/svg">
<path d="M62.7036 18.8293V59.4141H11.2964V18.8293" stroke="black" stroke-width="3" stroke-linecap="round" stroke-linejoin="round"/>
<path d="M11.2139 13.4499V7.61362C11.2139 4.83609 13.5939 2.58594 16.5396 2.58594H57.6606C60.5944 2.58594 62.9863 4.83609 62.9863 7.61362V13.4499" stroke="black" stroke-width="3" stroke-linecap="round" stroke-linejoin="round"/>
<path d="M69.4076 13.9656H4.5919C3.48565 13.9656 2.58887 14.8576 2.58887 15.9579V16.6845C2.58887 17.7848 3.48565 18.6768 4.5919 18.6768H69.4076C70.5138 18.6768 71.4106 17.7848 71.4106 16.6845V15.9579C71.4106 14.8576 70.5138 13.9656 69.4076 13.9656Z" stroke="black" stroke-width="3" stroke-linecap="round" stroke-linejoin="round"/>
<path d="M23.4912 25.9429H17.435C16.6411 25.9429 15.9976 26.583 15.9976 27.3727V33.3965C15.9976 34.1861 16.6411 34.8263 17.435 34.8263H23.4912C24.2851 34.8263 24.9287 34.1861 24.9287 33.3965V27.3727C24.9287 26.583 24.2851 25.9429 23.4912 25.9429Z" stroke="black" stroke-width="3" stroke-linecap="round" stroke-linejoin="round"/>
<path d="M39.857 25.9429H33.8007C33.0069 25.9429 32.3633 26.583 32.3633 27.3727V33.3965C32.3633 34.1861 33.0069 34.8263 33.8007 34.8263H39.857C40.6509 34.8263 41.2944 34.1861 41.2944 33.3965V27.3727C41.2944 26.583 40.6509 25.9429 39.857 25.9429Z" stroke="black" stroke-width="3" stroke-linecap="round" stroke-linejoin="round"/>
<path d="M56.5059 25.9429H50.4497C49.6558 25.9429 49.0122 26.583 49.0122 27.3727V33.3965C49.0122 34.1861 49.6558 34.8263 50.4497 34.8263H56.5059C57.2998 34.8263 57.9434 34.1861 57.9434 33.3965V27.3727C57.9434 26.583 57.2998 25.9429 56.5059 25.9429Z" stroke="black" stroke-width="3" stroke-linecap="round" stroke-linejoin="round"/>
<path d="M23.4912 39.6196H17.435C16.6411 39.6196 15.9976 40.2598 15.9976 41.0494V47.0733C15.9976 47.8629 16.6411 48.503 17.435 48.503H23.4912C24.2851 48.503 24.9287 47.8629 24.9287 47.0733V41.0494C24.9287 40.2598 24.2851 39.6196 23.4912 39.6196Z" stroke="black" stroke-width="3" stroke-linecap="round" stroke-linejoin="round"/>
<path d="M33.8125 39.6196H39.857C40.6582 39.6196 41.2944 40.2642 41.2944 41.0494V59.3788H32.3633V41.0494C32.3633 40.2525 33.0113 39.6196 33.8007 39.6196H33.8125Z" stroke="black" stroke-width="3" stroke-linecap="round" stroke-linejoin="round"/>
<path d="M56.5059 39.6196H50.4497C49.6558 39.6196 49.0122 40.2598 49.0122 41.0494V47.0733C49.0122 47.8629 49.6558 48.503 50.4497 48.503H56.5059C57.2998 48.503 57.9434 47.8629 57.9434 47.0733V41.0494C57.9434 40.2598 57.2998 39.6196 56.5059 39.6196Z" stroke="black" stroke-width="3" stroke-linecap="round" stroke-linejoin="round"/>
<path d="M28.2517 7.75431H25.8716V5.44556H24.8701V11.2467H25.8716V8.65671H28.2517V11.2467H29.265V5.44556H28.2517V7.75431Z" fill="black"/>
<path d="M33.0709 5.36353C31.4685 5.36353 30.3491 6.61752 30.3491 8.39889C30.3491 10.1803 31.4331 11.3405 32.9884 11.3405C34.3434 11.3405 35.7102 10.4029 35.7102 8.29341C35.7102 6.53548 34.6497 5.36353 33.0709 5.36353ZM34.6615 8.31685C34.6615 9.38333 34.1549 10.4615 33.0355 10.4615C31.9162 10.4615 31.4213 9.38333 31.4213 8.37545C31.4213 7.30897 31.928 6.23077 33.0473 6.23077C34.1667 6.23077 34.6615 7.32069 34.6615 8.32857V8.31685Z" fill="black"/>
<path d="M36.2051 6.33624H37.89V11.2467H38.9033V6.33624H40.6V5.44556H36.2051V6.33624Z" fill="black"/>
<path d="M42.7559 8.65671H44.9121V7.78946H42.7559V6.33624H45.0299V5.44556H41.7544V11.2467H45.1478V10.356H42.7559V8.65671Z" fill="black"/>
<path d="M47.5397 10.356V5.44556H46.5264V11.2467H49.8962V10.356H47.5397Z" fill="black"/>
<path d="M5.68799 59.4141H68.3121" stroke="black" stroke-width="3" stroke-linecap="round" stroke-linejoin="round"/>
</svg>
