<svg width="70" height="70" viewBox="0 0 70 70" fill="none" xmlns="http://www.w3.org/2000/svg">
<g clip-path="url(#clip0_60_446)">
<path d="M51.251 37.0581H56.7295" stroke="black" stroke-width="3" stroke-linecap="round" stroke-linejoin="round"/>
<path d="M51.251 46.0112H56.5876" stroke="black" stroke-width="3" stroke-linecap="round" stroke-linejoin="round"/>
<path d="M51.251 55.0354H56.5024" stroke="black" stroke-width="3" stroke-linecap="round" stroke-linejoin="round"/>
<path d="M28.3433 0.707275H41.6421C43.2743 0.707275 44.5943 2.02269 44.5943 3.64928V6.67616H25.3911V3.64928C25.3911 2.02269 26.7111 0.707275 28.3433 0.707275Z" stroke="black" stroke-width="3" stroke-linecap="round" stroke-linejoin="round"/>
<path d="M50.5132 27.8784H60.3064C63.0456 27.8784 65.2739 30.0991 65.2739 32.8289V63.621" stroke="black" stroke-width="3" stroke-linecap="round" stroke-linejoin="round"/>
<path d="M19.1888 29.9292H9.77879C7.1105 29.9292 4.93896 32.0791 4.93896 34.7524V63.2672" stroke="black" stroke-width="3" stroke-linecap="round" stroke-linejoin="round"/>
<path d="M21.9706 63.8047H4.88222C2.56876 63.8047 0.709473 65.6717 0.709473 67.9631V69.2927H23.5744" stroke="black" stroke-width="3" stroke-linecap="round" stroke-linejoin="round"/>
<path d="M48.1709 63.8047H65.387C67.5444 63.8047 69.2901 65.5444 69.2901 67.6944V68.9249H50.1579" stroke="black" stroke-width="3" stroke-linecap="round" stroke-linejoin="round"/>
<path d="M26.2002 16.167H43.7286" stroke="black" stroke-width="3" stroke-linecap="round" stroke-linejoin="round"/>
<path d="M26.2002 25.2617H43.7286" stroke="black" stroke-width="3" stroke-linecap="round" stroke-linejoin="round"/>
<path d="M26.2002 34.3564H43.7286" stroke="black" stroke-width="3" stroke-linecap="round" stroke-linejoin="round"/>
<path d="M11.2266 36.9165H19.3308" stroke="black" stroke-width="3" stroke-linecap="round" stroke-linejoin="round"/>
<path d="M11.2266 44.0452H19.3308" stroke="black" stroke-width="3" stroke-linecap="round" stroke-linejoin="round"/>
<path d="M11.2266 51.1741H19.3308" stroke="black" stroke-width="3" stroke-linecap="round" stroke-linejoin="round"/>
<path d="M11.2266 58.3027H19.3308" stroke="black" stroke-width="3" stroke-linecap="round" stroke-linejoin="round"/>
<path d="M48.1711 6.69019H21.9849C20.8013 6.69019 19.8418 7.64641 19.8418 8.82597V61.669C19.8418 62.8485 20.8013 63.8048 21.9849 63.8048H48.1711C49.3547 63.8048 50.3142 62.8485 50.3142 61.669V8.82597C50.3142 7.64641 49.3547 6.69019 48.1711 6.69019Z" stroke="black" stroke-width="3" stroke-linecap="round" stroke-linejoin="round"/>
<path d="M30.6853 47.0298H39.4565C41.1313 47.0298 42.4797 48.3876 42.4797 50.0425V63.8332H27.6479V50.0425C27.6479 48.3735 29.0105 47.0298 30.6711 47.0298H30.6853Z" stroke="black" stroke-width="3" stroke-linecap="round" stroke-linejoin="round"/>
<path d="M28.4004 69.2786H33.2118" stroke="black" stroke-width="3" stroke-linecap="round" stroke-linejoin="round"/>
<path d="M37.3276 69.2786H46.3544" stroke="black" stroke-width="3" stroke-linecap="round" stroke-linejoin="round"/>
</g>
<defs>
<clipPath id="clip0_60_446">
<rect width="70" height="70" fill="white"/>
</clipPath>
</defs>
</svg>
