<svg width="86" height="60" viewBox="0 0 86 60" fill="none" xmlns="http://www.w3.org/2000/svg">
<path d="M8.44014 15.0841V33.762C8.44014 35.051 9.51817 36.1089 10.8594 36.1089H22.3041C23.6203 36.1089 24.6984 37.1425 24.6984 38.4315C24.6984 39.7083 23.6329 40.754 22.3041 40.754H9.61845C6.38436 40.754 3.75195 38.2126 3.75195 35.0631V15.0841C3.75195 13.856 4.77984 12.8467 6.0459 12.8467C6.07098 12.8467 6.09605 12.8467 6.10858 12.8467C7.38718 12.8467 8.4276 13.8438 8.4276 15.0841H8.44014Z" stroke="black" stroke-width="3" stroke-linecap="round" stroke-linejoin="round"/>
<path d="M4.98047 56.2702L10.5336 41.1553" stroke="black" stroke-width="3" stroke-linecap="round" stroke-linejoin="round"/>
<path d="M25.601 56.2702L20.0479 41.1553" stroke="black" stroke-width="3" stroke-linecap="round" stroke-linejoin="round"/>
<path d="M77.5722 15.0841V33.762C77.5722 35.051 76.4942 36.1089 75.1529 36.1089H63.7082C62.392 36.1089 61.314 37.1425 61.314 38.4315C61.314 39.7083 62.3795 40.754 63.7082 40.754H76.3939C79.628 40.754 82.2604 38.2126 82.2604 35.0631V15.0841C82.2604 13.856 81.2325 12.8467 79.9664 12.8467C79.9414 12.8467 79.9163 12.8467 79.9037 12.8467C78.6251 12.8467 77.5847 13.8438 77.5847 15.0841H77.5722Z" stroke="black" stroke-width="3" stroke-linecap="round" stroke-linejoin="round"/>
<path d="M81.0194 56.2702L75.4663 41.1553" stroke="black" stroke-width="3" stroke-linecap="round" stroke-linejoin="round"/>
<path d="M60.3989 56.2702L65.952 41.1553" stroke="black" stroke-width="3" stroke-linecap="round" stroke-linejoin="round"/>
<path d="M24.3475 20.2766H61.1385C64.009 20.2766 66.3531 22.5384 66.3531 25.3352C66.3531 26.2958 65.5509 27.0863 64.548 27.0863H20.9379C19.9476 27.0863 19.1328 26.308 19.1328 25.3352C19.1328 22.5505 21.4644 20.2766 24.3475 20.2766Z" stroke="black" stroke-width="3" stroke-linecap="round" stroke-linejoin="round"/>
<path d="M37.4971 27.1348H48.2398V30.7098C48.2398 31.9745 47.1868 32.9959 45.8832 32.9959H39.8662C38.5626 32.9959 37.5096 31.9745 37.5096 30.7098V27.1348H37.4971Z" stroke="black" stroke-width="3" stroke-linecap="round" stroke-linejoin="round"/>
<path d="M42.8745 32.9839V55.7719" stroke="black" stroke-width="3" stroke-linecap="round" stroke-linejoin="round"/>
<path d="M36.3311 55.9058H49.2424" stroke="black" stroke-width="3" stroke-linecap="round" stroke-linejoin="round"/>
<path d="M27.3057 10.4148H32.8839V12.2996C32.8839 13.7953 31.6303 14.9991 30.101 14.9991C28.5592 14.9991 27.3182 13.7831 27.3182 12.2996V10.4148H27.3057Z" stroke="black" stroke-width="3" stroke-linecap="round" stroke-linejoin="round"/>
<path d="M30.1387 15.3032V19.8997" stroke="black" stroke-width="1.2" stroke-linecap="round" stroke-linejoin="round"/>
<path d="M52.4268 10.4148H58.0049V12.2996C58.0049 13.7953 56.7514 14.9991 55.2221 14.9991C53.6803 14.9991 52.4393 13.7831 52.4393 12.2996V10.4148H52.4268Z" stroke="black" stroke-width="3" stroke-linecap="round" stroke-linejoin="round"/>
<path d="M55.2593 15.3032V19.8997" stroke="black" stroke-width="3" stroke-linecap="round" stroke-linejoin="round"/>
<path d="M42.8372 7.9707C44.4543 7.9707 45.7579 9.23535 45.7579 10.804V20.2645H39.9165V10.804C39.9165 9.23535 41.2202 7.9707 42.8372 7.9707Z" stroke="black" stroke-width="3" stroke-linecap="round" stroke-linejoin="round"/>
<path d="M42.7871 2.72949V7.92184" stroke="black" stroke-width="3" stroke-linecap="round" stroke-linejoin="round"/>
</svg>
