<svg width="58" height="55" viewBox="0 0 58 55" fill="none" xmlns="http://www.w3.org/2000/svg">
<path d="M24.5163 3.08492C26.3504 -0.631304 31.6496 -0.6313 33.4837 3.08493L38.4168 13.0805C39.1451 14.5562 40.5529 15.579 42.1815 15.8157L53.2122 17.4186C57.3133 18.0145 58.9509 23.0543 55.9833 25.947L48.0014 33.7275C46.8229 34.8762 46.2852 36.5312 46.5634 38.1531L48.4477 49.1393C49.1482 53.2238 44.861 56.3386 41.1929 54.4102L31.3267 49.2232C29.8701 48.4574 28.1299 48.4574 26.6733 49.2232L16.8071 54.4102C13.139 56.3386 8.85179 53.2238 9.55235 49.1393L11.4366 38.1531C11.7148 36.5312 11.1771 34.8762 9.99864 33.7275L2.01671 25.947C-0.950875 23.0543 0.68668 18.0145 4.78778 17.4186L15.8185 15.8157C17.4471 15.579 18.8549 14.5562 19.5832 13.0805L24.5163 3.08492Z" fill="#00B9A4"/>
</svg>
